<svg width="219" height="302" viewBox="0 0 219 302" fill="none" xmlns="http://www.w3.org/2000/svg">
<path d="M213.379 194.436C211.412 193.551 209.55 193.961 206.259 194.746C200.662 196.069 199.714 197.761 197.899 197.088C197.009 196.748 195.961 195.847 193.876 187.644C192.021 180.349 192.015 177.784 190.317 177.105C188.396 176.362 186.54 178.891 183.35 180.823C176.693 184.857 166.429 184.98 160.287 181.133C152.19 176.069 154.345 166.087 146.663 163.797C142.881 162.667 140.844 164.64 136.757 162.556C132.313 160.296 132.934 157.076 129.327 155.747C123.841 153.727 118.789 159.845 115.703 157.451C114.081 156.204 113.718 153.188 114.772 151.719C115.943 150.091 118.285 151.215 120.504 149.711C122.571 148.317 122.987 145.765 123.595 141.971C124.31 137.556 124.181 132.714 124.064 128.505C124.011 126.59 123.923 124.88 124.837 122.937C125.926 120.595 127.266 120.443 128.396 118.756C130.873 115.062 129.673 108.095 125.557 104.459C123.279 102.451 120.691 101.971 118.531 101.572C115.896 101.086 113.262 100.595 111.505 101.982C108.578 104.277 110.604 109.693 109.029 110.243C107.454 110.794 104.222 105.946 102.424 101.572C101.394 99.0666 99.1282 93.5514 101.183 91.6661C103.033 89.9741 106.265 93.124 110.27 91.6661C114.667 90.0561 116.23 84.2481 116.458 83.4109C117.828 78.3172 115.428 76.3851 113.572 66.0689C112.202 58.4987 111.453 53.9963 113.982 50.3839C116.283 47.1052 118.818 48.0947 120.586 45.0209C122.758 41.2445 119.761 38.323 118.162 28.5045C116.874 20.6122 118.197 18.7094 115.996 12.4096C114.608 8.44004 113.654 5.66486 111.043 4.35924C105.773 1.70701 96.4057 6.38502 94.0111 12.7199C92.6762 16.2328 94.3096 18.1649 92.3073 23.5513C91.3998 26.0045 90.4572 28.5513 87.9748 30.2082C84.4619 32.5502 79.1926 32.1696 75.7441 29.7457C71.2418 26.5841 70.3518 20.378 70.7909 16.5899C71.23 12.8019 72.963 11.3909 72.1843 8.07121C72.0321 7.40961 71.0602 3.60984 68.1621 2.50328C64.415 1.06885 60.949 5.46579 58.2558 4.49389C57.5005 7.75502 56.1071 9.59931 54.86 10.7059C51.7394 13.4693 49.2218 11.9412 44.9068 15.46C42.6 17.3511 41.8213 19.0138 39.3857 19.453C37.1433 19.8628 36.5754 18.6742 34.8834 19.2012C31.792 20.1614 32.2956 24.5525 29.1047 26.2269C26.8623 27.3979 26.0192 25.5712 22.477 26.0572C16.8915 26.8183 11.1246 32.4975 8.88216 35.9108C8.3645 36.879 7.52014 37.6321 6.49928 38.0361C4.36813 38.7094 2.35993 36.8944 1.99694 37.3569C1.48171 38.0127 5.29902 41.9237 5.73813 42.3686C8.80605 45.4951 9.89504 45.8405 10.4922 47.4682C10.9485 48.844 10.9154 50.3353 10.3986 51.6895C11.1841 52.0625 11.8946 52.5765 12.4946 53.2059C14.6667 55.3897 13.8939 57.1052 16.0602 60.5947C17.2311 62.4623 17.8166 62.5677 18.0567 63.563C18.8334 63.5255 19.6034 63.3998 20.3518 63.1883C20.9373 63.0244 25.6503 61.6251 26.8974 57.919C27.6644 55.6298 26.6515 53.8206 27.8283 52.9893C28.6597 52.4038 29.3272 53.1883 30.6328 52.7375C32.8869 51.9588 33.1094 48.8733 34.2862 48.9143C35.463 48.9553 35.6503 51.8417 36.9208 51.9705C38.1913 52.0993 38.6773 49.2656 40.4923 48.9963C42.0028 48.7738 42.4946 50.5537 44.2276 50.7527C46.5286 51.0513 48.7417 48.3288 51.1949 45.2316C54.5262 41.0279 54.7956 39.008 56.634 38.7914C58.5778 38.5396 60.9197 40.4483 61.3178 42.5267C61.5637 43.8675 60.9139 44.7515 58.6832 47.9658C53.3436 55.6532 52.1668 57.6263 49.7605 57.8253C48.2733 57.9424 47.8518 57.2398 47.038 57.7375C44.8775 59.008 47.6703 63.9495 45.0825 68.3581C44.9303 68.6216 42.9572 71.871 39.8132 72.2691C37.5356 72.5443 36.3881 71.0982 35.1293 71.6837C34.1106 72.1579 33.2791 73.8792 33.6831 78.8909C33.9349 78.9495 34.1749 79.0139 34.4091 79.0783C38.7007 80.2492 40.949 84.2598 41.5462 85.3254C42.2266 86.5417 42.7425 87.8431 43.0801 89.1954C43.4958 88.4519 43.8061 88.1181 44.052 88.1708C44.7078 88.3113 43.9759 90.9284 45.223 94.4589C45.7206 95.8465 46.9091 99.172 49.5555 100.15C52.518 101.25 54.3272 98.2938 56.8623 99.3008C59.497 100.349 58.2968 103.832 61.4525 108.311C64.6082 112.79 68.771 113.311 68.6714 116.209C68.6129 118.083 66.8799 118.434 66.915 120.718C66.915 123.165 68.9349 123.868 68.6188 125.899C68.3436 127.656 66.5111 129.242 65.0474 129.125C63.5837 129.008 62.7054 127.205 62.5005 127.369C62.2956 127.533 64.0521 130.109 65.1352 133.399C65.8202 135.501 66.7394 138.288 65.8143 139.839C64.0988 142.767 55.9724 136.327 51.1773 139.5C48.9466 140.999 48.0684 144.067 48.2031 146.297C48.3026 147.808 48.9173 149.81 59.5906 158.364C64.9127 162.621 65.6387 162.825 66.4759 162.784C72.0848 162.498 72.7054 151.438 78.8823 150.378C83.2617 149.629 88.6949 154.207 89.9303 158.791C90.6655 162.126 90.3379 165.606 88.9935 168.745C88.2909 170.349 87.4713 171.42 87.8226 172.907C88.2558 174.845 90.1293 175.115 91.7277 176.9C94.2745 179.74 95.0298 185.191 92.8635 187.644C93.6285 189.194 94.2725 190.801 94.7897 192.451C95.7804 195.353 96.2964 198.395 96.3179 201.461C96.3061 203.347 96.0782 205.225 95.6387 207.059C97.0195 207.435 98.2606 208.207 99.2101 209.277C100.299 210.53 99.8951 210.882 101.078 212.164C103.882 215.22 109.169 216.502 110.931 214.717C112.694 212.931 109.901 208.944 111.786 207.234C113.484 205.694 116.968 207.866 117.905 206.555C118.841 205.244 115.563 202.825 116.201 199.927C116.898 196.807 121.763 194.81 122.998 195.829C123.999 196.666 122.483 199.342 123.683 200.244C124.608 200.934 126.025 199.658 126.909 200.413C127.793 201.169 126.81 202.878 127.928 204.155C128.197 204.469 128.54 204.711 128.927 204.859C129.313 205.008 129.731 205.057 130.141 205.003C131.47 204.728 131.476 202.984 132.518 202.796C133.689 202.58 135.662 204.553 135.914 206.701C136.201 209.137 134.157 210.419 134.895 211.801C135.539 213.036 137.325 212.386 138.467 213.669C139.608 214.951 138.718 216.356 138.467 220.109C138.273 222.995 137.951 227.773 140.504 229.799C141.488 230.577 141.898 230.162 142.717 230.97C144.07 232.345 143.502 234.049 143.736 238.446C143.958 242.72 144.608 243.235 143.906 244.225C142.413 246.321 138.759 245.091 137.787 247.117C137.202 248.288 138.373 248.874 137.957 250.513C137.835 250.957 137.637 251.377 137.372 251.754C138.385 252.286 139.543 252.477 140.674 252.299C142.36 251.982 143.461 250.741 144.585 251.28C145.533 251.737 145.293 252.878 146.201 254.506C147.43 256.725 150.071 258.604 151.382 258.019C152.957 257.316 152.05 253.335 153.508 252.919C154.398 252.65 154.924 254.09 156.652 254.19C158.379 254.289 159.046 252.872 160.135 253.259C161.622 253.78 161.107 256.713 163.022 257.591C163.888 257.984 164.468 257.591 164.725 258.019C165.393 259.078 161.499 261.883 162.173 263.37C162.682 264.494 165.317 263.827 165.574 264.646C165.972 265.929 159.45 267.644 157.922 272.545C157.588 273.622 157.805 273.862 157.337 275.009C155.943 278.382 152.828 279.406 153.086 280.109C153.513 281.28 162.073 278.481 163.795 281.215C164.122 281.742 164.04 282.211 164.643 282.826C165.674 283.885 167.659 284.289 168.742 283.511C169.825 282.732 169.035 281.631 169.913 280.536C171.447 278.645 176.16 278.827 178.197 280.958C178.847 281.637 178.918 282.187 179.725 282.55C180.949 283.101 181.798 282.293 183.484 282.427C183.853 282.427 185.727 282.597 186.74 283.827C188.098 285.472 186.669 287.574 188.01 290.138C188.32 290.708 188.66 291.261 189.029 291.795C189.445 292.372 189.892 292.925 190.369 293.452C191.177 294.33 193.882 296.292 197.852 298.563C197.653 297.732 197.774 296.856 198.192 296.11C200.358 292.662 209.579 296.268 211.072 293.183C212.372 290.419 206.172 285.168 207.354 283.739C208.18 282.744 211.295 285.179 213.391 283.897C215.574 282.562 215.147 278.136 214.942 276.157C214.07 267.375 209.439 265.771 210.299 260.519C210.978 256.344 214.111 256.134 214.942 251.233C215.528 247.568 214.146 245.683 213.08 241.637C209.889 229.518 216.927 225.115 212.928 216.403C210.539 211.204 206.64 209.752 207.512 206.959C208.683 203.13 216.669 203.827 217.419 200.15C217.846 198.007 215.574 195.425 213.379 194.436Z" fill="#C4C4C4" stroke="white" stroke-width="2.5" stroke-miterlimit="10"/>
</svg>
