<svg width="232" height="146" viewBox="0 0 232 146" fill="none" xmlns="http://www.w3.org/2000/svg">
<g filter="url(#filter0_d)">
<path d="M10 13.3272C13.1667 13.3272 22 13.3272 24.5 12.3272C26 11.8272 28.5 11.5272 26.5 14.3272C24.5 17.1272 22.6667 21.4938 22 23.3271C21.8333 24.3271 22.1 26.2271 24.5 25.8271C27.5 25.3271 29.5 25.8271 33 28.3271C33.6667 28.8271 34.6 30.1271 33 31.3271C31 32.8271 27 31.8271 26 35.8271C25 39.8271 28.5 46 34.5 51C35.8333 52.6667 40 56.2 46 57C47 57 54.5 56.5 52.5 67.5C51 71.5 50 73.5 52 76C52.5 76.5 53.4 77.8 53 79C54.5 78.8333 57.7 78.8 58.5 80C59.3 81.2 60.1667 80.5 60.5 80C60.8333 78.5 61.6 76.8 62 82C62 82.5 59.5 82.5 61 84C62.5 83.6667 64.9 83.7 62.5 86.5C61.5 87.5 62 90 64 92C66 94 68.5 95 67.5 98.5C66.5 102 65 101.5 69 106C70.5 107.5 70 109.5 69 110C68 110.5 66.5 110 66.5 114.5C66.5 114.5 69 116.5 66.5 118.5C64 120.5 64.5 122.5 64.5 123.5V125C66.3333 124 70.1 121.9 70.5 121.5C71 120.667 72.5 119.7 74.5 122.5C75.3 123.7 77.5 122.667 78.5 122C80 119.5 83.2 116.4 84 124C84.5 128.5 86.5 133.5 88 134C89.5 134.5 98.5 132.5 99.5 132.5C102.5 132.5 101 130.5 100 128.5C99 126 96 120 102.5 117.5C108 116.5 114.5 113 116 111C116.5 110.5 116.5 108.5 113.5 107C110.5 105.5 110.5 104.5 115 103.5C117 103 120.5 103.5 122 103C123 102.5 122.5 101 122.5 101C122.5 101 121.5 98.5 124.5 100C126.763 101.131 127.5 100 127.5 100C129.5 98.5 132.069 98.8274 135 100C137.5 101 142 98 142.5 97.5C143 97 148 95 153.5 97C157 98 165.5 98 167 100C168.5 102 172.5 107.5 177.5 107.5C179.5 107.5 181 107.5 180.5 104C180 100.5 179.5 98 185.5 99C187.5 99.5 187.5 97.5 186.5 96C185.5 94.5 182.5 90 190 87.5C193.5 86.5 192 91 192.5 92C193.008 93.0166 193.882 92 195 92C195.5 92 197 93.5 196.5 95C196.109 96.1735 197 97 198.5 97C199 97 199.8 96.7 201 95.5C201 94.5 204.5 92 205 100.5C204.5 102.5 202 103.5 205.5 105.5C208 107.5 207.5 109.5 207.5 117C207.5 119.5 209 121.5 211 122.5C212.5 123 212.5 125 212.5 128C212.5 131 220 130 222 130" stroke="white" stroke-width="3" stroke-miterlimit="10"/>
</g>
<defs>
<filter id="filter0_d" x="0" y="0.5" width="232" height="145.08" filterUnits="userSpaceOnUse" color-interpolation-filters="sRGB">
<feFlood flood-opacity="0" result="BackgroundImageFix"/>
<feColorMatrix in="SourceAlpha" type="matrix" values="0 0 0 0 0 0 0 0 0 0 0 0 0 0 0 0 0 0 127 0"/>
<feOffset/>
<feGaussianBlur stdDeviation="5"/>
<feColorMatrix type="matrix" values="0 0 0 0 1 0 0 0 0 1 0 0 0 0 1 0 0 0 0.5 0"/>
<feBlend mode="normal" in2="BackgroundImageFix" result="effect1_dropShadow"/>
<feBlend mode="normal" in="SourceGraphic" in2="effect1_dropShadow" result="shape"/>
</filter>
</defs>
</svg>
