<svg width="57" height="59" viewBox="0 0 57 59" fill="none" xmlns="http://www.w3.org/2000/svg">
<path d="M43.9651 38.9377C43.5084 37.3686 42.9405 35.4248 43.8363 33.5864C45.4873 30.2081 50.4815 30.5653 50.7215 28.4869C50.8972 26.9236 48.2625 25.1321 46.1314 24.3885C42.7356 23.2175 40.6922 24.8042 39.7555 23.7503C37.7414 21.4845 45.5517 12.1461 43.9651 10.6238C42.9932 9.69292 39.533 12.6964 38.1103 11.5196C36.5178 10.2023 39.7437 5.60626 37.7297 3.22921C36.4768 1.75966 33.9241 1.98799 32.8878 2.05825C29.0939 2.39783 28.7484 4.85683 25.622 5.37206C21.0903 6.10976 18.4967 1.49616 15.4229 2.94816C13.6079 3.80296 14.17 5.577 12.2379 6.64257C8.77183 8.5571 3.74254 4.62265 2.93458 5.75263C2.22029 6.74209 6.14304 9.71634 5.22969 12.1227C4.60322 13.7679 2.30226 13.6449 2.1676 14.8041C1.98025 16.4435 6.63482 16.8358 9.05286 20.6589C10.6395 23.1707 11.0552 26.8417 9.56222 28.3054C8.63716 29.2129 7.5072 28.762 6.75778 29.8335C5.93811 31.0044 6.1723 33.1531 7.26715 34.0431C8.68401 35.214 10.5575 33.4576 13.766 33.2761C18.7484 33.0009 22.9346 36.7128 24.814 38.3756C29.088 42.1637 30.0833 46.0513 32.5014 45.7702C34.1407 45.577 34.3222 43.6801 36.1606 43.4751C38.5025 43.2058 41.6407 45.9693 41.8515 48.7855C42.115 52.2983 37.677 54.3709 38.4499 56.0103C39.0353 57.1812 41.7227 56.9588 45.9733 56.5606C50.8972 56.0981 54.7555 55.7351 55.1946 54.0138C55.4171 53.1414 54.6384 52.4506 52.2203 49.9154C45.5693 42.9248 44.492 40.7585 43.9651 38.9377Z" fill="#C4C4C4" stroke="white" stroke-width="2.5" stroke-miterlimit="10"/>
</svg>
