<svg width="104" height="131" viewBox="0 0 104 131" fill="none" xmlns="http://www.w3.org/2000/svg">
<path d="M101.226 106.981C98.5679 100.143 93.1991 99.3288 93.1581 93.5559C93.1581 90.9681 94.2061 90.9154 94.9146 87.1157C95.3478 84.8674 95.582 81.7292 93.3045 72.4142C90.5527 61.1789 89.1124 61.2901 89.5633 57.3732C90.1487 52.1683 92.7073 51.8814 93.2167 45.9037C93.6733 40.5055 91.7003 39.6273 92.7073 35.365C93.5738 31.6941 95.1839 31.7584 98.3982 25.6753C100.799 21.1437 102.175 18.5441 101.8 15.1366C101.314 10.7221 98.1991 7.81229 97.116 6.80527C93.2635 3.21041 88.6968 2.54882 85.219 2.05117C83.0575 1.74025 80.8688 1.66369 78.6909 1.82282L80.2892 3.23969C83.9543 6.46569 85.8513 8.01721 87.596 10.8861C87.8127 11.2432 89.1417 13.4271 88.7026 13.8135C88.2635 14.1999 85.7108 12.4259 85.5176 12.2854C84.411 11.4774 84.2237 11.1144 83.5387 11.009C82.4614 10.8744 82.1218 11.735 81.1148 11.6472C79.733 11.5184 79.2998 9.7795 78.6323 9.92587C77.6546 10.1366 78.6031 13.8486 76.7178 15.406C75.3771 16.5125 74.0656 15.324 72.7717 16.2315C70.055 18.146 72.959 25.4411 70.986 26.3662C70.0199 26.817 69.1768 25.1542 66.589 25.283C65.5 25.3357 64.8325 25.6694 63.9719 25.2186C63.1112 24.7678 62.9824 23.8545 62.4438 23.8193C61.6768 23.7666 61.0211 25.5055 60.5937 26.495C59.8618 28.2104 58.3103 31.8228 55.6229 33.7608C53.3981 35.365 51.8407 34.7678 49.3173 37.0102C48.908 37.4246 48.4332 37.7687 47.9122 38.0289C47.124 38.3617 46.2755 38.5278 45.4201 38.5167C44.5646 38.5056 43.7207 38.3176 42.9414 37.9646C41.9227 37.5137 41.7705 37.1215 41.185 37.139C40.014 37.1683 39.0187 38.5149 38.5737 39.4809C36.7529 43.5208 40.3887 50.3592 41.7471 52.9119C42.2798 53.913 42.8126 54.8088 42.4555 55.6168C41.5597 57.6484 36.2728 56.3018 35.5058 58.1285C34.8267 59.7269 38.3923 61.9576 37.7541 63.0817C37.1686 64.077 33.5211 63.9189 31.5773 61.9107C30.1545 60.4529 30.6932 59.0653 29.0655 57.4084C27.9765 56.3018 27.5081 56.6882 25.3302 55.4763C21.8173 53.5149 21.384 51.5887 18.2459 50.7514C16.7412 50.3533 16.1088 50.5992 15.822 50.7514C14.5632 51.4248 14.4636 53.2222 14.165 54.7034C13.443 57.4838 12.093 60.0616 10.2189 62.2386C9.46949 63.1344 7.74818 64.8557 4.25871 65.8803C4.34068 67.2796 3.39807 68.6262 2.66036 72.2269C1.94607 75.6812 1.58892 77.4025 2.32077 78.8545C3.71422 81.6356 8.08778 82.1098 12.514 82.5899C19.2939 83.3335 23.7318 82.2093 24.2236 83.6145C24.7154 85.0196 20.7107 86.7644 20.9976 89.3932C21.1791 91.0091 23.1405 90.9681 24.3934 92.9061C25.1545 94.077 25.1194 95.0723 24.8559 96.7819C27.0925 98.1461 28.9543 99.2293 30.4297 100.043C34.2529 102.186 36.911 103.486 37.5667 106.161C37.959 107.771 37.2623 108.374 37.9063 109.475C39.2002 111.671 42.4555 110.008 46.1498 112.022C49.8442 114.036 50.1897 117.754 52.6897 117.631C53.2668 117.586 53.8218 117.39 54.2988 117.062C54.7757 116.734 55.1578 116.286 55.4063 115.763C56.4602 113.304 52.8595 110.383 53.7962 109.218C54.3407 108.538 56.1791 108.767 57.1101 109.645C57.6955 110.166 57.6077 110.646 57.959 111.173C58.9251 112.608 61.8173 112.684 63.5679 112.192C68.6674 110.74 70.2073 102.848 71.5948 103.222C72.5258 103.492 71.7939 107.18 73.5504 107.982C74.4169 108.38 74.9672 107.648 75.9274 108.07C77.5199 108.761 77.0984 111.226 78.3923 111.723C79.5105 112.145 80.2366 110.482 81.9637 110.359C84.3056 110.201 86.8232 112.994 87.8185 115.629C88.8139 118.263 87.6721 119.329 88.9251 122.426C89.4629 123.882 90.3353 125.192 91.4719 126.249C94.0012 128.462 96.6944 127.766 99.7799 128.439C100.331 128.553 100.868 128.724 101.384 128.948C101.49 127.52 101.589 125.939 101.671 124.212C102.116 114.645 102.344 109.85 101.226 106.981Z" fill="#C4C4C4" stroke="white" stroke-width="2.5" stroke-miterlimit="10"/>
</svg>
