<svg width="135" height="127" viewBox="0 0 135 127" fill="none" xmlns="http://www.w3.org/2000/svg">
<path d="M102.489 103.83C100.61 101.488 98.9177 99.3159 99.2632 96.8042C99.4051 95.8502 99.7823 94.9465 100.361 94.1747C100.939 93.403 101.701 92.7875 102.577 92.3838C104.017 91.7983 105.106 92.2081 106.992 92.4658C107.577 92.5477 113.356 93.2971 117.273 91.1953C118.66 90.4517 118.444 90.0887 122.63 84.5676C127.062 78.7128 128.485 77.5418 128.151 75.5571C127.718 73.0571 125.13 73.1215 124.925 70.8732C124.591 67.2901 131.067 65.4458 130.873 61.0138C130.809 59.5969 130.1 58.8592 130.616 57.5009C131.33 55.6683 133.256 55.6273 133.508 54.187C133.678 53.2151 132.823 52.2959 131.125 50.4517C129.082 48.2327 128.063 47.1261 126.535 46.9388C124.843 46.7573 124.047 47.8521 122.969 47.2784C122.325 46.9329 122.021 46.2362 121.611 44.3861C120.622 39.9364 121.26 38.9411 120.335 37.5067C119.782 36.725 119.039 36.0964 118.177 35.6797C117.315 35.2629 116.361 35.0717 115.405 35.1238C111.646 35.4399 109.849 40.5746 108.525 40.0536C107.454 39.6379 109.052 36.4528 107.419 33.0278C105.903 29.8193 103.274 29.9072 102.735 27.173C102.273 24.7901 104.123 24.0524 103.584 21.6519C103.18 19.8955 101.828 18.7596 99.3335 16.7221C96.289 14.228 95.3053 14.4622 94.7433 13.0687C93.7421 10.5746 96.4997 8.87084 95.68 6.27131C94.9013 3.80058 91.3182 1.88605 88.6543 2.53008C85.0536 3.39659 83.4962 8.75374 82.6238 8.38488C81.8861 8.08043 83.3264 4.40362 81.7749 3.19753C81.0899 2.6706 80.1999 2.91648 79.2222 3.02772C77.3681 3.21389 75.4964 2.95081 73.7655 2.26074C73.8564 2.96156 74.0354 3.64813 74.2983 4.3041C75.036 6.21862 75.9962 7.16708 76.0547 9.40361C76.1191 11.0839 75.6917 13.6249 74.4447 13.9879C72.6063 14.5324 69.9131 10.1121 69.1753 10.5922C68.7772 10.8498 69.6203 12.1085 69.0875 12.7994C68.0688 14.1401 63.6191 11.1893 62.0617 12.6296C60.8498 13.7303 62.8639 15.9786 61.892 18.3263C60.2292 22.3193 51.9388 21.728 51.7807 23.6776C51.6987 24.8486 54.5617 24.8486 56.2831 27.5008C58.0044 30.1531 56.2831 32.0442 57.899 34.8955C59.6906 38.0161 62.94 37.7585 63.0805 39.6554C63.2561 41.9973 58.2385 42.7585 57.8111 46.0957C57.4716 48.7479 60.3639 50.276 59.5091 52.1262C58.9236 53.4259 56.8744 53.9938 55.3463 53.7421C54.0055 53.5196 53.2971 52.7058 51.0137 50.2585C46.5524 45.4751 45.8498 44.9365 45.0653 45.0711C43.4845 45.3522 42.2959 48.2269 43.0278 49.2397C43.6132 50.0945 45.3228 49.1812 46.1718 50.1706C47.0207 51.1601 45.8615 52.1847 46.4235 54.269C46.9095 56.0547 48.0336 56.4411 47.7819 57.1554C47.3896 58.2854 44.6613 57.1906 41.9271 58.6016C38.8884 60.1707 38.6308 63.3849 36.9153 63.2854C35.1999 63.1859 34.6261 60.0653 33.4025 60.2292C32.0324 60.4165 32.0793 64.6086 30.7678 64.8194C29.2573 65.0536 28.0921 59.6964 26.084 59.7198C24.0758 59.7432 24.1167 65.077 20.5629 66.4295C18.8591 67.0793 18.0336 66.166 13.9352 66.0899C13.0394 66.0899 12.1788 66.0899 11.4528 66.1543C11.8509 69.6144 10.1355 73.8826 7.90478 74.4212C5.45747 75.0067 2.95162 71.002 2.12609 71.6168C1.30056 72.2316 3.88253 77.1613 4.50314 78.3264C7.43054 83.7831 9.187 87.0501 11.9797 87.3369C15.2819 87.6765 16.7221 83.426 19.0055 84.1051C21.0254 84.6906 22.2959 88.666 22.0383 92.8873C22.9282 94.9072 23.8416 95.5512 24.6144 95.6566C26.3708 95.9025 27.4891 93.3147 30.0535 93.6192C31.3357 93.7597 31.7573 94.4857 33.1976 94.2983C34.2104 94.1637 34.4739 93.748 35.6566 93.7128C36.8393 93.6777 37.0852 94.0876 37.7819 93.8826C39.0641 93.5079 38.9528 91.9037 39.8252 91.6754C40.6976 91.447 42.0091 92.9517 45.1765 97.5302C47.7351 101.236 48.2444 102.167 49.0875 102.12C51.0606 102.015 51.2947 96.7281 53.9294 96.3416C54.5258 96.3117 55.1189 96.4467 55.6436 96.7318C56.1683 97.0168 56.6042 97.4409 56.9037 97.9576C57.0258 98.167 57.1147 98.3942 57.1671 98.6309C57.9108 98.3819 58.7177 98.3985 59.4505 98.6777C60.3521 99.0641 60.6859 99.8135 61.365 100.844C63.4376 104.017 66.2304 106.113 66.5875 105.815C66.9446 105.516 64.1168 102.759 64.9306 99.9599C65.2995 98.707 66.3065 97.7468 67.858 96.2655C68.8592 95.3112 69.1636 95.2409 69.3861 95.2409C70.7152 95.2409 72.1379 97.7175 72.3135 100.089C72.4774 102.249 71.5173 103.016 71.9329 104.55C72.3896 106.26 74.0875 107.284 75.3756 107.864L92.3252 125.194L96.7866 121.096C96.1543 120.627 92.0618 117.583 92.5829 116.506C92.6797 116.344 92.7957 116.195 92.9283 116.061C93.707 115.188 94.1988 115.177 94.3334 114.849C94.6437 114.07 92.2374 113.192 91.9447 111.629C91.57 109.667 94.5559 106.734 96.529 107.167C98.022 107.495 97.7468 109.474 99.7491 110.545C101.582 111.529 102.887 110.452 105.229 110.867C105.96 110.989 106.656 111.264 107.273 111.675C107.16 110.47 106.816 109.297 106.26 108.221C105.317 106.383 104.433 106.283 102.489 103.83Z" fill="#C4C4C4" stroke="white" stroke-width="2.5" stroke-miterlimit="10"/>
</svg>
