<svg width="110" height="227" viewBox="0 0 110 227" fill="none" xmlns="http://www.w3.org/2000/svg">
<g filter="url(#filter0_d)">
<path d="M38 215.5C40 213.333 44.0019 207.3 44.0019 204.5C43.5019 199.333 41.2019 188.6 36.0019 187C35.3352 189 32.8019 192.4 28.0019 190C25.6019 188.8 23.3352 186.5 22.5019 185.5C21.5019 184.667 18.6019 183.5 15.0019 185.5C13.0019 186.5 10.0019 180.5 15.0019 177.5C17.5019 175 18 173.5 17.5 170C17 166.5 21.0038 170.5 22.5019 166.5C23 165 24.1173 164.164 24.5 164C25.6667 163.5 26.3 162.5 23.5 160.5C20 158 19 152.5 21.5 143C21.9 139.8 25 140.667 26.5 141.5C30.1667 143 38.6 144.4 43 140C45.8 137.2 50.8333 132 53 129.5C53.1667 129.167 54.1 128.5 56.5 128.5C58.9 128.5 59.8333 127.5 60 127C60.1667 126.167 61.5 124.7 65.5 125.5C66.3333 126 69.2 125.9 74 121.5C76 118.7 77.1667 117.333 77.5 117C75.8333 114.833 73.9 109.1 75.5 103.5C75.3333 102.833 74.6 101.7 73 102.5C72.2 102.9 70.6667 103.334 70 103.5C68.5 102.5 66.5 100.3 70.5 97.5003C71.7 96.7003 73.3333 96.8336 74 97.0003C74.6667 97.1668 76 96.9998 76 94.9998C76 93.9998 75 88.9998 75 88.4998C75.1667 87.1665 76.3 85.0998 79.5 87.4998C80 87.9998 80.5 89.0001 80.5 90.0001C80.5 90.5001 79.5 91.5001 79 92.0001C78.5 92.5001 76.5 99.0007 81 97.0003C83.5 95.5001 85.5 94.0001 85.5 93.5001C85.5 93.0001 86 91.5004 85 90.0001C84.5 89.0001 83.5 87.5001 87 88.0001C88.5 88.0001 88 83.0001 91.5 78.0001C93 76.0001 95.5 73.5001 97 70.5001C98 69.0001 98 62.5 93.5 60.0001C91.3146 58.7861 82 53 79.5 49C79.1875 48.5 75.5 46.4998 75.5 45C75.8333 40 76 30.0001 76 28.0001C76 26.5001 75.5 22.0001 72 18.5001C70 16.0001 69 15.5001 68 13.5001C67.2 11.9001 65.5 11.8333 64.5 12.5" stroke="white" stroke-width="3" stroke-miterlimit="10"/>
</g>
<defs>
<filter id="filter0_d" x="0.765625" y="0.606934" width="108.272" height="225.911" filterUnits="userSpaceOnUse" color-interpolation-filters="sRGB">
<feFlood flood-opacity="0" result="BackgroundImageFix"/>
<feColorMatrix in="SourceAlpha" type="matrix" values="0 0 0 0 0 0 0 0 0 0 0 0 0 0 0 0 0 0 127 0"/>
<feOffset/>
<feGaussianBlur stdDeviation="5"/>
<feColorMatrix type="matrix" values="0 0 0 0 1 0 0 0 0 1 0 0 0 0 1 0 0 0 0.5 0"/>
<feBlend mode="normal" in2="BackgroundImageFix" result="effect1_dropShadow"/>
<feBlend mode="normal" in="SourceGraphic" in2="effect1_dropShadow" result="shape"/>
</filter>
</defs>
</svg>
