<svg width="148" height="159" viewBox="0 0 148 159" fill="none" xmlns="http://www.w3.org/2000/svg">
<path d="M123.284 91.2835C121.967 90.5868 120.14 93.2097 118.565 92.4544C117.259 91.8046 116.715 89.0938 117.804 87.5716C118.323 86.9325 119.04 86.4837 119.841 86.2952C122.271 85.4697 123.653 86.5938 124.525 85.7858C124.789 85.5399 124.988 85.1301 124.525 81.4533C124.11 78.116 123.741 76.7694 124.566 75.9263C124.925 75.5857 125.39 75.379 125.884 75.3409C128.103 75.2179 130.292 79.1816 129.396 80.5633C129.051 81.102 128.489 80.8502 127.862 81.4591C126.58 82.7004 126.809 85.8561 128.12 86.4708C129.01 86.8865 130.152 85.9908 131.305 85.2355C131.656 85.013 134.818 82.8936 134.449 80.7741C134.262 79.6559 133.225 79.2928 133.389 78.1863C133.419 77.894 133.525 77.6146 133.696 77.3762C133.868 77.1378 134.099 76.9487 134.367 76.828C135.187 76.5586 135.749 77.5949 136.446 77.4134C137.324 77.1968 137.453 75.3292 137.851 73.4205C138.123 71.5162 138.748 69.6794 139.695 68.0048C141.697 64.4392 143.916 63.842 145.368 60.8034C145.462 60.616 147.125 57.0153 146.135 53.4087C144.964 49.1464 141.258 49.1582 133.454 42.9579C126.592 37.5129 126.762 35.3467 122.745 34.4802C119.66 33.8069 116.967 34.4802 114.437 32.2905C113.301 31.2331 112.428 29.9235 111.891 28.4673C110.638 25.3701 111.814 24.3689 110.784 21.6698C109.754 18.9708 107.271 16.2424 104.929 16.4005C103.202 16.5235 102.476 18.157 101.358 17.7647C100.058 17.267 100.485 14.8021 98.8929 14.1113C97.9327 13.6897 97.3824 14.4216 96.5159 14.0235C94.7594 13.2214 95.4913 9.53282 94.5603 9.2635C93.1962 8.87123 91.6329 16.7635 86.5744 18.1862C84.8179 18.678 81.9315 18.6019 80.9655 17.1675C80.6142 16.6406 80.6728 16.1605 80.1166 15.6394C79.1856 14.7612 77.3472 14.5328 76.8027 15.212C75.8659 16.3829 79.4667 19.3103 78.4128 21.7576C78.1643 22.2804 77.7822 22.7283 77.3053 23.0562C76.8283 23.3842 76.2732 23.5805 75.6961 23.6253C73.1961 23.7483 72.8858 20.0539 69.1563 18.0164C65.4268 15.979 62.2067 17.6651 60.9128 15.4696C60.2687 14.3689 60.9655 13.7659 60.5732 12.1558C59.9175 9.48013 57.2594 8.18036 53.4362 6.0375C51.9842 5.22368 50.0989 4.14054 47.8624 2.77637C47.6692 4.05857 47.3472 5.70378 47.1481 8.1628C47.0427 9.40402 47.0193 12.7003 46.9725 19.2869C46.9725 22.753 46.9725 23.0574 46.7207 23.7893C45.9362 26.0258 44.4901 26.6347 38.7348 30.6745C33.1142 34.6148 32.5345 35.4052 30.661 35.4286C28.5474 35.4286 26.8378 34.486 25.7312 35.5164C24.9408 36.2541 25.4678 37.068 24.7125 38.4907C24.086 39.6617 23.2547 39.9837 20.5498 41.6347C17.8448 43.2858 16.3577 44.1933 15.9596 44.8607C14.7008 46.9919 16.3811 48.3443 15.4502 51.0668C14.3612 54.2518 11.5041 53.9942 10.7664 56.5059C9.67736 60.2179 15.3331 62.9462 14.4198 65.8736C13.5064 68.801 6.80851 69.5739 1.69141 69.65C2.34435 71.7442 2.76454 73.904 2.94434 76.0903C3.34247 80.9029 2.23006 81.9451 3.20196 85.095C4.84716 90.4111 8.81671 89.9193 9.99938 94.8667C10.7722 98.1102 9.41388 99.6207 9.72418 102.343C11.4551 103.033 13.3268 103.296 15.1809 103.11C16.1586 102.999 17.0485 102.753 17.7336 103.28C19.2851 104.486 17.8448 108.163 18.5825 108.467C19.4549 108.825 21.0122 103.467 24.613 102.613C27.3062 101.969 30.8893 103.883 31.6387 106.354C32.4643 108.953 29.7008 110.657 30.702 113.151C31.2874 114.545 32.2477 114.322 35.2922 116.805C37.7863 118.842 39.1387 119.954 39.5427 121.734C40.0814 124.135 38.2313 124.873 38.6938 127.255C39.2207 130.001 41.8495 129.914 43.3776 133.11C45.0111 136.559 43.4127 139.744 44.4842 140.136C45.8074 140.657 47.6048 135.522 51.3636 135.206C52.3197 135.154 53.2735 135.345 54.1357 135.762C54.9978 136.179 55.7402 136.807 56.2933 137.589C57.2184 139.024 56.5802 140.019 57.5697 144.469C57.9795 146.319 58.284 147.015 58.928 147.361C60.0053 147.946 60.8015 146.84 62.4936 147.021C64.0217 147.179 65.0404 148.286 67.0837 150.534C68.7816 152.378 69.6364 153.298 69.4667 154.27C69.2734 155.364 68.1142 155.651 67.2535 156.535C69.0744 157.478 70.0229 157.455 70.5264 157.074C71.4105 156.407 70.9948 154.603 72.5638 153.38C73.4772 152.671 74.1271 152.882 74.3203 152.361C74.8062 151.243 71.9784 149.902 70.3683 147.132C68.8285 144.486 69.1212 141.775 69.6072 137.32C69.9819 133.842 70.3097 130.839 72.154 130.054C73.325 129.556 74.2734 130.317 76.3577 131.073C80.7254 132.648 85.9245 132.665 89.3613 131.073C90.14 130.716 91.7032 129.047 94.8414 125.721C99.9058 120.347 101.973 117.332 104.795 117.437C105.705 117.572 106.635 117.437 107.47 117.05C108.7 116.406 108.799 115.429 109.636 114.761C111.211 113.514 113.325 114.96 115.491 115.013C120.538 115.142 123.489 107.7 126.615 106.184C125.259 104.18 124.37 101.897 124.016 99.5037C123.507 95.4638 124.689 92.027 123.284 91.2835Z" fill="#C4C4C4" stroke="white" stroke-width="2.5" stroke-miterlimit="10"/>
</svg>
