<svg width="81" height="120" viewBox="0 0 81 120" fill="none" xmlns="http://www.w3.org/2000/svg">
<g filter="url(#filter0_d)">
<path d="M38 108.5C40 106.333 44.0019 100.3 44.0019 97.5C43.5019 92.3333 41.2019 81.6 36.0019 80C35.3352 82 32.8019 85.4 28.0019 83C25.6019 81.8 23.3352 79.5 22.5019 78.5C21.5019 77.6666 18.6019 76.5 15.0019 78.5C13.0019 79.5 10.0019 73.4999 15.0019 70.4999C17.5019 67.9999 18 66.4999 17.5 62.9999C17 59.4999 21.0038 63.4999 22.5019 59.4999C23 58 24.1173 57.164 24.5 57C25.6667 56.5 26.3 55.5 23.5 53.5C20 51 19 45.4999 21.5 35.9999C21.9 32.7999 25 33.6666 26.5 34.4999C30.1667 36 38.6 37.4 43 33C45.8 30.2 50.8333 25 53 22.5C53.1667 22.1667 54.1 21.5 56.5 21.5C58.9 21.5 59.8333 20.5 60 20C60.1667 19.1667 61.5 17.7 65.5 18.5C69.5 19.3 69.1667 13.5 68.5 10.5" stroke="white" stroke-width="3" stroke-miterlimit="10"/>
</g>
<defs>
<filter id="filter0_d" x="0.765625" y="0.174561" width="79.6408" height="119.343" filterUnits="userSpaceOnUse" color-interpolation-filters="sRGB">
<feFlood flood-opacity="0" result="BackgroundImageFix"/>
<feColorMatrix in="SourceAlpha" type="matrix" values="0 0 0 0 0 0 0 0 0 0 0 0 0 0 0 0 0 0 127 0"/>
<feOffset/>
<feGaussianBlur stdDeviation="5"/>
<feColorMatrix type="matrix" values="0 0 0 0 1 0 0 0 0 1 0 0 0 0 1 0 0 0 0.5 0"/>
<feBlend mode="normal" in2="BackgroundImageFix" result="effect1_dropShadow"/>
<feBlend mode="normal" in="SourceGraphic" in2="effect1_dropShadow" result="shape"/>
</filter>
</defs>
</svg>
