<svg width="71" height="63" viewBox="0 0 71 63" fill="none" xmlns="http://www.w3.org/2000/svg">
<g filter="url(#filter0_d)">
<path d="M10 13.3272C13.1667 13.3272 22 13.3272 24.5 12.3272C26 11.8272 28.5 11.5272 26.5 14.3272C24.5 17.1272 22.6667 21.4938 22 23.3271C21.8333 24.3271 22.1 26.2271 24.5 25.8271C27.5 25.3271 29.5 25.8271 33 28.3271C33.6667 28.8271 34.6 30.1271 33 31.3271C31 32.8271 27 31.8271 26 35.8271C25 39.8271 28.5 46 34.5 51C36 50 39 49.7 39 46.5C38.8333 45.3333 39.2 43.2 42 42C43.5 41.3571 43 41 43.5 39C43.9 37.4 46.1667 36.6667 47 36.5C48.3333 36.3333 51.3 36.4 52.5 38C54 40 59.5 45 59.5 44.5" stroke="white" stroke-width="3" stroke-miterlimit="10"/>
</g>
<defs>
<filter id="filter0_d" x="0" y="0.5" width="71" height="62.3695" filterUnits="userSpaceOnUse" color-interpolation-filters="sRGB">
<feFlood flood-opacity="0" result="BackgroundImageFix"/>
<feColorMatrix in="SourceAlpha" type="matrix" values="0 0 0 0 0 0 0 0 0 0 0 0 0 0 0 0 0 0 127 0"/>
<feOffset/>
<feGaussianBlur stdDeviation="5"/>
<feColorMatrix type="matrix" values="0 0 0 0 1 0 0 0 0 1 0 0 0 0 1 0 0 0 0.5 0"/>
<feBlend mode="normal" in2="BackgroundImageFix" result="effect1_dropShadow"/>
<feBlend mode="normal" in="SourceGraphic" in2="effect1_dropShadow" result="shape"/>
</filter>
</defs>
</svg>
