<svg width="131" height="158" viewBox="0 0 131 158" fill="none" xmlns="http://www.w3.org/2000/svg">
<path d="M108.995 111.627C108.175 109.618 106.653 109.232 106.699 107.973C106.787 106.568 108.825 105.438 110.271 104.999C113.362 104.068 115.54 105.754 116.471 104.659C117.402 103.565 115.769 100.948 116.471 100.497C116.951 100.192 117.894 101.287 119.194 102.025C121.653 103.43 125.634 103.717 127.607 101.943C130.125 99.6594 129.404 93.8573 126.752 90.8948C125.154 89.1091 123.28 88.8398 122.847 86.9018C122.513 85.4147 123.333 84.3433 124.018 82.7391C125.362 79.6007 125.69 76.12 124.955 72.7859C123.719 68.2016 118.286 63.6231 113.907 64.3725C107.73 65.4322 107.109 76.492 101.5 76.7789C100.663 76.8199 99.9372 76.6149 94.6151 72.3585C83.9418 63.8163 83.3271 61.8198 83.2276 60.2917C83.0929 58.061 83.9711 54.9931 86.2018 53.4943C90.9793 50.2917 99.0823 56.7379 100.839 53.8339C101.764 52.2648 100.839 49.4779 100.16 47.3936C99.0765 44.1032 97.2615 41.5388 97.525 41.3631C97.7884 41.1875 98.5964 43.0318 100.072 43.1196C101.547 43.2074 103.368 41.65 103.643 39.8936C103.959 37.862 101.957 37.1594 101.939 34.7121C101.939 32.4287 103.667 32.0774 103.696 30.2039C103.795 27.3058 99.6854 26.8666 96.477 22.3057C93.2686 17.7448 94.5214 14.3432 91.8868 13.2952C89.3516 12.2882 87.5425 15.2448 84.58 14.1441C81.9336 13.1664 80.7451 9.84085 80.2474 8.45326C78.9769 4.94037 79.7088 2.30571 79.0765 2.1652C78.4441 2.02468 77.4722 4.24366 75.423 9.30221C73.2099 14.7706 72.1034 17.4989 71.7697 18.6699C69.9137 25.0692 68.9593 28.3655 70.0132 32.3467C70.9383 35.924 72.8821 37.8444 71.7697 39.6535C71.4184 40.239 71.1198 40.1922 67.4371 41.8666C63.9945 43.4299 63.1514 43.9802 61.916 43.6231C60.6807 43.2659 60.7451 42.5165 59.4512 42.0072C57.2322 41.1524 54.094 42.2179 52.7357 44.2144C51.635 45.8362 52.7006 46.6149 51.7989 48.465C50.1362 51.8842 45.2943 51.6734 45.0893 53.9041C44.9722 55.1922 46.5589 55.7074 46.3656 57.4697C46.2544 58.465 45.5928 59.6418 44.7497 59.7648C43.4734 59.958 42.5834 57.6336 41.6877 57.8971C40.7919 58.1606 41.4359 60.4791 39.9898 61.6325C39.2111 62.2589 37.8821 62.499 37.1034 61.972C35.7509 61.0704 37.0507 58.5528 36.4242 55.5317C35.7509 52.294 33.0636 49.3608 30.3059 48.143C25.142 45.8596 20.265 49.7765 18.0109 47.1243C16.8867 45.8128 17.3668 44.0271 15.464 42.616C14.8141 42.1359 13.4558 41.3807 12.8293 41.8549C11.6584 42.7273 14.4336 46.7437 12.7415 48.8222C12.0331 49.6945 11.1256 49.5072 10.786 50.4381C10.3586 51.6091 11.6291 52.4872 11.6408 53.9217C11.6245 54.558 11.4073 55.1728 11.0202 55.6781L12.0624 56.2987C13.7837 57.3116 15.2415 57.9264 15.1244 58.424C14.9429 59.1734 11.5296 58.1781 10.1069 59.9522C9.20522 61.0821 10.0483 62.1594 9.00616 63.5236C7.964 64.8877 6.93942 64.2086 5.86213 65.3913C4.30475 67.095 5.74501 69.2145 4.15836 71.0002C2.9874 72.3175 1.5764 71.8667 1.35392 72.698C0.985069 74.1091 4.62676 76.8843 8.74855 78.1372C12.8703 79.3901 13.8715 78.0962 15.8856 79.4955C18.7076 81.451 19.9839 86.2812 18.9476 89.9463C18.1221 92.8737 16.067 94.2262 16.7345 96.3222C17.279 98.026 18.9945 98.2543 19.0296 99.2964C19.0296 100.163 17.923 101.375 12.9113 102.973C12.9113 103.412 12.8352 103.84 13.1279 104.097C14.4218 105.268 19.5682 99.6653 22.8118 101.17C23.8364 101.644 24.416 102.698 25.2357 102.446C26.19 102.148 26.1959 100.45 26.8926 100.409C27.402 100.374 28.0635 101.27 28.1631 102.165C28.3621 103.969 26.3656 105.251 26.7638 105.866C27.1619 106.48 28.7778 105.555 29.1877 106.117C29.6619 106.773 27.5483 108.131 27.6537 109.94C27.7474 111.492 33.731 117.095 33.9008 118.225C34.2579 120.626 32.2146 121.316 32.2439 123.582C32.2849 126.884 36.6643 128.137 36.1959 130.462C35.8212 132.312 32.923 132.218 32.5015 134.291C32.1092 136.217 34.3458 137.382 33.772 139.261C33.3856 140.526 32.1795 140.585 31.3539 141.679C30.7216 142.511 30.3235 143.933 31.0319 146.551C31.998 146.047 33.2802 145.784 35.3059 144.168C36.7638 142.997 37.2087 142.236 38.1104 142.318C39.498 142.441 39.5741 144.349 40.9734 144.864C43.5202 145.807 46.4066 140.707 48.4324 141.492C49.7088 141.984 49.2579 144.273 50.7743 149.9C51.676 153.219 52.1502 154.894 53.3856 155.637C54.7263 156.445 55.6572 155.76 61.1608 154.935C65.5694 154.273 66.6467 154.46 67.1093 153.576C67.9172 152.025 65.1069 150.479 64.6444 146.27C64.5683 145.596 64.1936 142.171 66.1725 140.415C67.1737 139.537 67.8528 139.894 70.3353 139.314C73.4676 138.582 75.4875 137.288 79.0882 134.981C82.1619 133.014 82.3083 132.429 82.32 132.089C82.4079 129.823 76.9571 128.576 77.2205 126.99C77.4547 125.59 81.9454 125.099 82.5718 125.04C85.7159 124.718 87.6011 125.444 88.2685 124.455C88.936 123.465 87.6831 122.019 88.2685 121.48C89.0589 120.778 91.3774 123.149 93.3681 122.247C94.0472 121.937 94.0063 121.551 94.6386 121.141C96.395 119.97 98.7369 121.644 100.927 122.159C104.135 122.921 105.874 120.936 108.86 119.425C108.918 118.032 109.036 116.843 109.17 115.871C109.352 114.531 109.627 113.178 108.995 111.627Z" fill="#C4C4C4" stroke="white" stroke-width="2.5" stroke-miterlimit="10"/>
</svg>
