<svg width="216" height="404" viewBox="0 0 216 404" fill="none" xmlns="http://www.w3.org/2000/svg">
<g filter="url(#filter0_d)">
<path d="M144 391.5C135 393 123.5 383 126.5 376.5C129.5 370 122 362.5 120.5 361C119 359.5 116.5 357 119.5 355C122.5 353 124 349.5 123.5 347.5C123 345.5 123 344.5 124.5 344.5C126.9 344.5 127.833 343.5 128 343C129.5 340.5 129 340.5 130.5 340C132.5 339.2 130.857 338.167 130 337.5C125.5 334 125.833 326.667 126.5 323.5C126.833 320.667 128.2 315.4 131 317C138 321.5 147 318 147.5 317.5C147.9 317.1 153.333 311.333 156 308.5C157.167 307.167 159.9 304.5 161.5 304.5C164.3 304.9 165.333 303.667 165.5 303C165.667 302.333 166.9 301.1 170.5 301.5C175 302 172.5 302 176.5 300.5C179.7 299.3 182.167 294.333 183 292C182.5 291.5 181.4 288.9 181 282.5C180.5 274.5 179 280.5 176.5 279.5C171 277 177 272.5 177.5 273.5C178 274.5 181.5 274 181.5 272.5C181.5 271 181 266.5 181 265.5C181 264.5 181 262.5 182.5 262.5C186.5 262.5 186 266.5 185 268.5C184 270.5 184 273.5 185.5 273.5C187 273.5 192 270 191 267.5C189 262 193.5 265.5 194 263C194.5 260.5 195 256.5 200 251C206.4 243.4 202.667 238.167 200 236.5C198.667 235.667 195 233.3 191 230.5C187 227.7 182.983 222.667 181.474 220.5C181.932 210.914 182.582 203 181.474 200.131C178.842 193.291 173.526 192.477 173.485 186.704C173.439 184.133 174.5 184.08 175.225 180.262C175.654 178.014 175.886 174.875 173.63 165.559C170.905 154.322 169.479 154.433 169.926 150.516C170.517 145.31 173.039 145.023 173.543 139.044C173.996 133.646 172.042 132.767 173.039 128.504C173.897 124.833 175.491 124.897 178.674 118.813C181.051 114.275 182.414 111.675 182.043 108.273C181.55 103.858 178.465 100.948 177.404 99.9404C173.59 96.3567 169.068 95.6833 165.624 95.1856C163.484 94.8746 161.316 94.7981 159.16 94.9572C156.632 92.6794 156.667 92.6325 156.197 92.4627C152.626 91.1862 149.408 93.2357 147.617 91.2916C146.851 90.4367 147.176 89.7457 146.272 89.084C144.863 88.0476 143.239 89.1543 141.222 89.084C138.097 88.9669 134.966 86.0625 133.987 83.3045C132.427 78.9186 136.926 76.6934 135.668 72.5945C134.172 67.7226 126.902 67.8455 126.241 63.0732C125.911 60.6606 127.511 58.7048 126.409 57.6391C125.522 56.7725 123.708 57.3288 122.71 57.6391C120.768 58.2612 119.001 59.3434 117.556 60.7953L117.388 60.7602C113.498 59.8936 109.051 57.1355 107.7 53.6221C107.289 52.5681 107.271 50.9695 107.225 47.7665C107.167 44.2648 107.561 42.959 106.645 42.1275C105.961 41.5009 105.306 41.8406 101.694 41.9694C97.2532 42.0982 97.3692 41.6415 95.7748 42.0982C93.3688 42.7775 92.7021 43.9779 90.8933 43.6675C90.032 43.4197 89.2 43.0781 88.4119 42.6487C86.8755 41.9284 86.3885 41.5771 85.5479 41.1613C84.1681 40.4528 81.3621 39.065 79.8257 39.9902C78.8111 40.5992 78.9619 41.8523 78.4807 44.2824C78.0517 46.4607 76.898 52.2988 73.3498 53.9266C72.5599 54.3031 71.6868 54.466 70.8158 54.3993C69.9449 54.3326 69.106 54.0385 68.3813 53.546C67.7079 53.0036 67.195 52.2847 66.8985 51.4679C66.602 50.6511 66.5334 49.7677 66.7001 48.9142C67.566 35.1048 48 30.5001 48 30.5001C44.6667 31.6667 37.1 32.0001 33.5 24.0001C29 14.0001 26 10.5001 20 12.0001C15.2 13.2001 12.3333 12.5001 11.5 12.0001" stroke="white" stroke-width="3" stroke-miterlimit="10"/>
</g>
<defs>
<filter id="filter0_d" x="0.728516" y="0.16748" width="214.306" height="402.984" filterUnits="userSpaceOnUse" color-interpolation-filters="sRGB">
<feFlood flood-opacity="0" result="BackgroundImageFix"/>
<feColorMatrix in="SourceAlpha" type="matrix" values="0 0 0 0 0 0 0 0 0 0 0 0 0 0 0 0 0 0 127 0"/>
<feOffset/>
<feGaussianBlur stdDeviation="5"/>
<feColorMatrix type="matrix" values="0 0 0 0 1 0 0 0 0 1 0 0 0 0 1 0 0 0 0.5 0"/>
<feBlend mode="normal" in2="BackgroundImageFix" result="effect1_dropShadow"/>
<feBlend mode="normal" in="SourceGraphic" in2="effect1_dropShadow" result="shape"/>
</filter>
</defs>
</svg>
