<svg width="195" height="140" viewBox="0 0 195 140" fill="none" xmlns="http://www.w3.org/2000/svg">
<path d="M59.5358 131.802C62.5393 131.111 66.8075 129.606 69.2255 131.714C69.9398 132.334 69.7173 132.598 70.3965 133.242C71.6494 134.413 73.7571 134.846 81.8661 133.242C86.8953 132.247 88.8918 131.521 91.0464 132.733C92.2525 133.412 92.2173 133.98 93.3415 134.349C93.9972 134.565 96.1342 135.069 101.327 131.205C106.216 127.563 106.784 125.279 108.634 125.514C111.175 125.83 111.099 130.25 114.331 131.035C116.913 131.661 118.623 129.226 120.701 130.268C122.387 131.117 121.749 132.949 123.166 134.009C126.368 136.392 132.534 129.19 137.697 131.205C141.544 132.697 142.498 138.359 143.986 137.914C145.022 137.61 144.302 134.916 146.532 131.971C147.522 130.666 148.113 130.596 148.23 129.758C148.593 127.276 143.728 125.192 144.132 124.149C144.466 123.341 147.393 124.676 150.929 123.64C152.908 123.055 153.587 122.176 155.859 120.584C161.128 116.854 162.463 118.137 165.034 115.824C170.039 111.322 168.488 103.412 171.152 103.078C172.294 102.932 172.692 104.378 174.893 105.115C177.949 106.146 181.111 104.53 181.333 104.436C183.488 103.394 184.337 101.925 185.496 102.311C186.175 102.539 186.134 103.131 186.942 103.845C188.242 104.987 190.549 105.391 191.784 104.606C193.593 103.435 193.541 99.4246 191.954 96.79C190.198 93.9094 188.049 94.9808 182.264 91.3508C178.078 88.722 177.247 86.9187 173.429 85.9117C171.837 85.5641 170.216 85.368 168.587 85.3262C166.181 85.1565 164.062 85.1272 162.288 85.1506C161.031 86.4056 160.027 87.8904 159.331 89.5241C156.48 96.6553 161.989 103.71 160.262 104.694C158.98 105.42 155.678 101.726 152.522 98.1893C147.176 92.2174 143.599 88.0956 144.471 83.6401C144.887 81.5031 145.859 81.7021 146.638 78.9972C147.809 74.8988 147.223 68.6225 143.541 66.6143C139.858 64.6061 134.694 67.8672 134.255 68.1599C129.12 71.5499 130.291 76.2279 125.584 78.6986C122.375 80.3789 117.738 80.3379 115.988 78.078C114.395 76.0288 115.59 72.6916 115.988 71.5791C119.015 63.0838 127.697 63.7454 130.227 56.4094C130.882 54.4235 131.027 52.3048 130.648 50.2483C130.27 48.1918 129.38 46.2636 128.06 44.6412C126.219 42.5771 123.687 41.257 120.941 40.9292C116.796 40.5253 114.635 42.9316 105.771 48.359C95.4433 54.6763 92.7033 54.8754 90.9117 53.9328C89.1201 52.9901 88.2595 50.8004 87.8145 49.5944C86.1225 45.0393 88.7454 42.5686 87.1939 39.688C85.7419 36.9714 81.3391 35.2618 78.2185 36.2805C73.7805 37.7208 74.3426 43.7454 69.2372 45.5721C68.9211 45.6833 65.1389 46.9773 63.3824 45.2618C60.0803 42.1236 68.2712 33.681 65.859 23.599C65.7595 23.1658 64.1025 16.6318 58.4292 12.7676C50.2325 7.18213 43.7922 14.0615 32.4222 9.67042C31.7372 9.4011 25.3437 6.8367 20.7126 1.55566C16.2571 3.69267 14.3133 6.23951 13.3941 8.35895C11.9538 11.702 12.7793 14.6412 10.5896 16.0112C7.74417 17.7676 3.38819 14.6646 2.24065 16.2629C1.74299 16.9597 2.00062 18.3472 2.75003 19.1318C4.98071 21.4737 10.7067 17.6271 13.0135 20.0861C13.7922 20.9175 13.236 21.4679 14.0322 22.2524C16.2161 24.4187 20.8882 20.7594 23.4643 22.7618C25.1095 24.0498 23.7981 26.017 25.8063 27.9901C27.5627 29.7466 29.4011 28.9679 30.5838 30.6658C31.4854 31.9597 31.6669 34.1786 30.7126 35.5077C28.9562 37.9433 24.8578 35.6658 19.4948 37.3578C15.0041 38.7688 15.8414 40.9819 11.0814 43.4117L10.9877 43.4585C11.6594 46.0404 12.4784 48.5816 13.4409 51.0698C15.6657 56.825 17.3402 61.0229 20.4667 61.5264C24.6939 62.2466 27.8906 55.6424 31.3039 56.9363C33.9737 57.9433 33.6049 62.592 36.6552 63.3063C38.6166 63.7688 39.7934 62.0944 41.3742 62.9257C42.8437 63.6986 42.3812 65.4492 43.921 67.2583C45.4609 69.0674 46.8484 68.4937 48.8918 69.6822C52.914 72.0241 51.1517 76.3391 55.777 82.1705C58.037 85.0276 58.8742 84.5124 60.2384 87.0183C61.5382 89.4129 61.4093 91.0113 61.9948 96.5733C62.9375 104.852 63.6634 104.858 63.0194 106.005C60.3321 110.771 49.3836 107.949 47.7208 112.381C47.0241 114.237 48.5229 115.865 47.3402 117.223C45.736 119.067 41.8074 117.416 41.3508 118.5C40.7653 119.875 47.0768 122.738 46.8309 126.655C46.784 127.387 46.5323 127.856 46.7021 128.822C47.0182 130.578 48.2653 131.204 49.1025 132.334C52.5849 132.761 56.115 132.581 59.5358 131.802Z" fill="#C4C4C4" stroke="white" stroke-width="2.5" stroke-miterlimit="10"/>
</svg>
