<svg width="192" height="119" viewBox="0 0 192 119" fill="none" xmlns="http://www.w3.org/2000/svg">
<path d="M189.989 93.1113C189.924 92.6136 189.544 91.6301 182.717 89.3994C175.451 87.0223 173.935 87.4966 168.32 85.3713C164.678 83.9954 164.948 83.6558 160.709 82.1218C156.388 80.5469 155.229 80.5879 153.899 79.1944C152.729 77.9883 152.494 76.7764 151.558 70.9977C150.293 63 150.123 61.0445 149.081 60.7811C147.377 60.3244 146.271 65.137 142.582 65.8923C139.028 66.6183 135.556 63.0703 132.986 60.4708C132.453 59.9321 126.581 53.8782 125.832 49.6159C121.839 47.3443 119.157 45.3829 118.349 44.5047C117.872 43.9776 117.424 43.4245 117.008 42.8478C116.639 42.3141 116.299 41.761 115.99 41.1908C114.649 38.6264 116.077 36.507 114.719 34.8794C113.706 33.6499 111.833 33.5035 111.464 33.4801C109.778 33.3454 108.929 34.1534 107.705 33.603C106.897 33.24 106.827 32.6897 106.177 32.0105C104.139 29.8794 99.4263 29.6686 97.8924 31.589C96.9966 32.6839 97.705 33.8255 96.7214 34.5632C95.7378 35.3009 93.6711 34.9379 92.6231 33.8782C92.0376 33.2634 92.102 32.7951 91.7741 32.2681C90.0528 29.5339 81.4931 32.3267 81.0657 31.1616C80.8081 30.459 83.9228 29.4051 85.3163 26.062C85.7905 24.8911 85.5739 24.6745 85.9018 23.5972C87.4299 18.6967 93.9522 16.9813 93.554 15.6991C93.2964 14.8794 90.6617 15.5468 90.1524 14.4227C89.479 12.9356 93.3725 10.1311 92.705 9.07138C92.4474 8.6674 91.8678 9.03626 91.0013 8.64399C89.0867 7.76577 89.602 4.8325 88.1149 4.31142C87.0259 3.925 86.4228 5.37705 84.6312 5.24238C82.8397 5.10772 82.3771 3.70254 81.4872 3.97187C80.0294 4.41098 80.9369 8.3688 79.3619 9.07138C78.0504 9.65686 75.4099 7.80089 74.1804 5.5585C73.2729 3.93086 73.513 2.78917 72.5645 2.33249C71.4404 1.79385 70.3397 3.03506 68.6535 3.35122C67.5229 3.52996 66.3648 3.33903 65.3514 2.80676C64.0751 4.66859 61.3526 5.82199 60.1582 6.31965C58.4427 7.04565 57.5938 7.05151 56.9263 8.01756C56.1828 9.11241 56.7565 9.83837 56.2471 11.4192C55.5563 13.5562 54.1101 13.4625 53.0211 15.5175C51.6336 18.0995 53.0211 20.0023 52.0024 20.9508C50.5504 22.2974 47.4474 17.8302 42.8221 17.8946C39.7952 17.9356 37.5528 19.8267 34.157 22.6546C29.034 26.9403 27.7167 30.5117 25.3162 30.1312C23.2846 29.8092 23.068 27.0749 21.2179 27.069C18.8759 27.069 18.5247 31.5539 14.9298 32.678C12.8279 33.3396 12.1839 32.0457 9.66048 32.678C7.45322 33.2342 4.56678 35.0726 4.22135 37.438C3.70027 41.0152 9.438 42.7073 9.15112 46.2728C8.8818 49.6159 2.52344 53.2459 2.52344 53.2459C2.52344 53.2459 6.89699 59.0012 15.4918 70.2658C16.6628 69.0012 17.0258 68.8021 17.6289 68.8197C19.801 68.8958 19.7776 71.6417 24.438 75.9392C27.6172 78.8666 30.3631 80.1254 30.0118 81.3607C29.6956 82.4732 27.342 81.9052 26.452 83.3689C25.3338 85.2307 27.2718 89.1534 30.1699 91.267C30.89 91.794 32.061 92.4965 38.3666 93.6089C45.2987 94.815 46.3116 94.3877 47.5001 95.623C49.0868 97.28 48.2144 99.0012 48.7355 105.84C49.1863 111.659 49.4088 114.569 51.0774 116.056C52.3537 117.227 53.7061 117.227 63.7706 116.525C72.664 115.939 73.3783 115.793 73.9872 114.973C74.5259 114.253 75.2811 112.584 69.8069 96.0914C68.9989 93.6441 67.9685 90.623 69.3443 87.8947C70.3748 85.8455 72.5821 84.3057 73.5247 84.7975C74.8186 85.4825 72.8046 89.5223 74.4498 90.8396C75.7144 91.8408 77.4884 89.9614 82.6465 88.9778C86.3877 88.2693 87.9158 88.7904 88.6828 87.5843C89.3034 86.5832 88.7355 85.0083 87.5997 81.8584C86.3936 78.5153 85.609 77.7249 85.8959 76.1324C86.095 75.0141 86.8561 73.322 88.2378 72.8829C91.2589 71.8993 96.8034 77.2799 98.2964 83.0996C98.8175 85.1195 98.3725 85.3654 99.0692 87.7424C99.9263 90.689 101.465 93.3926 103.56 95.6347C107.114 99.3759 110.51 99.6687 110.369 101.208C110.205 103.129 104.901 103.158 104.643 105.078C104.497 106.179 106.072 107.374 115.182 111.577C123.027 115.207 125.305 115.916 126.171 114.985C127.166 113.919 125.164 111.929 126.171 109.101C126.593 107.93 127.342 107.069 130.972 104.616C135.422 101.583 137.646 100.073 138.712 99.9731C143.255 99.5457 144.028 104.411 150.474 105.389C151.499 105.547 155.744 106.185 159.608 103.995C162.43 102.397 162.717 100.623 164.877 100.436C165.621 100.371 166.669 100.488 171.844 104.148C175.75 106.917 176.528 107.824 177.729 107.555C179.38 107.175 179.409 105.043 181.13 102.139C184.713 96.1031 190.305 95.4766 189.989 93.1113Z" fill="#C4C4C4" stroke="white" stroke-width="2.5" stroke-miterlimit="10"/>
</svg>
