<svg width="161" height="303" viewBox="0 0 161 303" fill="none" xmlns="http://www.w3.org/2000/svg">
<g filter="url(#filter0_d)">
<path d="M89 291.5C91 289.334 95.0019 283.3 95.0019 280.5C94.5019 275.334 92.2019 264.6 87.0019 263C86.3352 265 83.8019 268.4 79.0019 266C76.6019 264.8 74.3352 262.5 73.5019 261.5C72.5019 260.667 69.6019 259.5 66.0019 261.5C64.0019 262.5 61.0019 256.5 66.0019 253.5C68.5019 251 69 249.5 68.5 246C68 242.5 72.0038 246.5 73.5019 242.5C74 241 75.1173 240.164 75.5 240C76.6667 239.5 77.3 238.5 74.5 236.5C71 234 70 228.5 72.5 219C72.9 215.8 76 216.667 77.5 217.5C81.1667 219 89.6 220.4 94 216C96.8 213.2 101.833 208 104 205.5C104.167 205.167 105.1 204.5 107.5 204.5C109.9 204.5 110.833 203.5 111 203C111.167 202.167 112.5 200.7 116.5 201.5C117.333 202 120.2 201.9 125 197.5C127 194.7 128.167 193.334 128.5 193C126.833 190.834 124.9 185.1 126.5 179.5C126.333 178.834 125.6 177.7 124 178.5C123.2 178.9 121.667 179.334 121 179.501C119.5 178.501 117.5 176.301 121.5 173.501C122.7 172.701 124.333 172.834 125 173.001C125.667 173.167 127 173 127 171C127 170 126 165 126 164.5C126.167 163.167 127.3 161.1 130.5 163.5C131 164 131.5 165 131.5 166C131.5 166.5 130.5 167.5 130 168C129.5 168.5 127.5 175.001 132 173.001C134.5 171.5 136.5 170 136.5 169.5C136.5 169 137 167.501 136 166C135.5 165 134.5 163.5 138 164C139.5 164 139 159 142.5 154C144 152 146.5 149.5 148 146.5C149 145 149 138.5 144.5 136C142.315 134.786 133 129 130.5 125C129 123.334 124.9 120.2 120.5 121C117.5 121.5 113.5 116.5 113 110.5C112.5 104.5 108.5 103 106.5 103.5C105.3 103.9 104.333 104.334 104 104.5C103.5 104.667 102.3 104.3 101.5 101.5C101.1 100.3 100 100.667 99.5 101C99 101.167 97.9 100.9 97.5 98.5003C97.3333 97.0003 96.6 94.9003 95 98.5003C93.5 100.5 91 106.5 84 105C82 104.5 83.5 103 81 102C79.5 101.5 77.5 102 79 104.5C79.4 105.3 80.1667 106.167 80.5 106.5C80.5 108.667 79.5 111.5 76 110C74.5 108.5 74.5 105 65.5 103.5C64 103 63 104 62.5 100C62.125 97 59 94.0003 51.5 91.0003L50 90.5003C50.3333 88.8337 50.2 85.1003 47 83.5003C46.1667 83.0003 45 81.5003 47 79.5003C49.0004 78.167 51.7012 75.5003 46.5012 75.5003C45.0012 75.5003 31.5012 76.0003 29.0012 74.0003C28.5012 73.5003 26.0012 71.0003 27.5012 65.5003L29.0012 61.0003C29.5009 59.667 29.6005 56.7003 26.0005 55.5003C22.4005 54.3003 15.1671 49.0003 12.0005 46.5003C11.3666 46 12.0005 44.2003 12.0005 41.0003C12.0005 37.0003 19.4998 38.5003 23.5005 34.5003C26.701 31.3003 26.5007 25.167 26.0005 22.5003C25.0009 21.0003 24.2017 18.2003 29.0012 19.0003C33.8006 19.8003 32 14.0001 31 11" stroke="white" stroke-width="3" stroke-miterlimit="10"/>
</g>
<defs>
<filter id="filter0_d" x="0.21875" y="0.525879" width="159.819" height="301.992" filterUnits="userSpaceOnUse" color-interpolation-filters="sRGB">
<feFlood flood-opacity="0" result="BackgroundImageFix"/>
<feColorMatrix in="SourceAlpha" type="matrix" values="0 0 0 0 0 0 0 0 0 0 0 0 0 0 0 0 0 0 127 0"/>
<feOffset/>
<feGaussianBlur stdDeviation="5"/>
<feColorMatrix type="matrix" values="0 0 0 0 1 0 0 0 0 1 0 0 0 0 1 0 0 0 0.5 0"/>
<feBlend mode="normal" in2="BackgroundImageFix" result="effect1_dropShadow"/>
<feBlend mode="normal" in="SourceGraphic" in2="effect1_dropShadow" result="shape"/>
</filter>
</defs>
</svg>
