<svg width="139" height="106" viewBox="0 0 139 106" fill="none" xmlns="http://www.w3.org/2000/svg">
<path d="M58.2205 100.239C60.0944 98.0672 61.4463 95.4957 62.1725 92.721C62.4711 91.2397 62.5707 89.4423 63.8294 88.769C64.1163 88.6168 64.7487 88.3709 66.2533 88.769C69.3915 89.6062 69.813 91.5325 73.3376 93.4938C75.5156 94.7058 75.984 94.3194 77.073 95.4259C78.7007 97.0828 78.162 98.4704 79.5847 99.9283C81.5285 101.925 85.2054 102.083 85.7616 101.099C86.3997 99.9751 82.8341 97.7444 83.5133 96.1461C84.2803 94.3194 89.5672 95.666 90.463 93.6343C90.8201 92.8264 90.2873 91.9306 89.7545 90.9294C88.3962 88.3767 84.7604 81.5617 86.5812 77.4985C87.0262 76.5207 88.0274 75.1566 89.1925 75.1566C89.8306 75.1566 89.9594 75.5313 90.9489 75.9821C91.7282 76.3352 92.5721 76.5232 93.4275 76.5343C94.283 76.5454 95.1315 76.3793 95.9196 76.0465C96.4407 75.7863 96.9155 75.4421 97.3248 75.0278C99.8482 72.7854 101.423 73.3826 103.63 71.7784C106.318 69.8404 107.869 66.228 108.601 64.5125C109.029 63.5231 109.684 61.7842 110.451 61.8369C110.99 61.872 111.072 62.7444 111.979 63.2362C112.887 63.728 113.507 63.3533 114.596 63.3006C117.184 63.1718 118.027 64.8346 118.993 64.3837C120.966 63.4587 118.063 56.187 120.779 54.2491C122.073 53.3416 123.385 54.5301 124.725 53.4235C126.611 51.8662 125.662 48.1542 126.64 47.9434C127.307 47.7971 127.741 49.5359 129.122 49.6647C130.129 49.7526 130.469 48.8919 131.546 49.0266C132.231 49.1085 132.418 49.495 133.525 50.3029C133.718 50.4434 136.224 52.2526 136.71 51.831C137.196 51.4095 135.82 49.2549 135.604 48.9036C133.847 46.0348 131.962 44.4832 128.297 41.2572C124.105 37.5687 124.263 37.5453 123.707 37.3462C120.1 36.0523 116.851 38.1015 115.041 36.1753C114.245 35.3205 114.596 34.6296 113.683 33.968C112.26 32.9317 110.621 34.0383 108.584 33.968C105.428 33.8509 102.266 30.9469 101.277 28.1893C99.7019 23.8041 104.245 21.5792 102.975 17.4809C101.464 12.6097 94.1222 12.7326 93.4548 7.96097C93.121 5.54878 94.737 3.59326 93.6246 2.52769C92.7288 1.66118 90.8962 2.21738 89.8892 2.52769C87.9275 3.14971 86.1429 4.2317 84.6843 5.68344C85.9372 5.9469 86.9384 6.01131 87.2545 6.73145C87.8927 8.20101 84.9887 10.7888 83.8119 11.831C82.4185 13.0663 81.6398 13.7397 80.4337 13.8685C78.6772 14.0558 78.0917 12.8556 76.7393 13.1659C75.1878 13.5347 75.3107 15.3029 73.5543 17.1179C71.1655 19.5827 69.0402 18.2888 67.3072 20.3673C66.9442 20.8005 66.429 21.591 66.2241 27.6975C66.0309 33.3708 66.4231 34.3954 65.3927 35.6659C65.0121 36.1401 64.8072 36.187 59.9126 38.3415C55.9781 40.098 55.6152 40.2678 55.1351 40.8298C53.3786 42.8673 54.3622 44.858 52.7112 45.865C52.0688 46.2215 51.3336 46.3754 50.6021 46.3064C49.8707 46.2374 49.1772 45.9489 48.6128 45.4786C47.7287 44.612 48.1503 43.5172 47.1432 42.8029C46.2592 42.1706 45.5917 42.8029 44.8482 42.2935C43.1561 41.1928 44.7896 36.8837 43.5776 36.3041C42.7931 35.9294 41.9852 37.639 40.2638 37.5746C38.5425 37.5102 38.4488 35.9294 36.751 35.6659C34.7837 35.3615 34.0987 37.3696 31.587 37.3872C29.7193 37.3872 29.5671 36.2865 28.0741 36.3685C25.498 36.5031 25.3751 39.8814 21.7861 42.1237C18.6479 44.091 17.0027 42.598 14.8188 44.6706C12.8692 46.5324 14.0167 47.8849 11.9324 50.7069C10.176 53.0488 9.06356 52.5746 5.81414 55.8064C4.13967 57.4692 3.15606 58.447 2.4125 60.139C1.24154 62.8615 1.00734 66.632 2.92187 68.8041C3.3317 69.2608 3.81181 69.8111 4.36802 69.7409C6.16545 69.5184 6.3645 63.2069 7.93944 63.1132C8.52492 63.0781 8.61275 63.9446 9.55537 64.132C10.9781 64.4189 11.71 62.6273 13.121 62.7737C14.532 62.92 14.5027 64.5652 15.9254 64.9809C17.7228 65.5079 18.765 63.1894 20.4278 63.283C22.8634 63.4177 23.2732 68.5524 27.1432 77.2175C29.3856 82.2467 30.7732 83.9271 30.3692 87.077C30.1086 88.9217 29.3766 90.668 28.2439 92.1472C28.4272 92.4084 28.6685 92.6236 28.9488 92.776C29.2292 92.9284 29.541 93.0137 29.8598 93.0254C30.9547 92.9727 31.2357 91.9306 32.1549 91.4095C34.7838 89.9107 38.484 95.0102 46.8564 99.3955C49.8423 100.965 51.4582 101.404 52.0378 103.137C52.1253 103.392 52.1784 103.658 52.1959 103.927C55.7791 102.856 57.4711 101.134 58.2205 100.239Z" fill="#C4C4C4" stroke="white" stroke-width="2.5" stroke-miterlimit="10"/>
</svg>
