<svg width="400" height="450" viewBox="0 0 400 450" fill="none" xmlns="http://www.w3.org/2000/svg">
<path d="M329.287 246C324.195 246 319.271 247.826 315.41 251.146C311.548 254.466 309.005 259.061 308.241 264.096C307.477 269.131 308.543 274.273 311.247 278.588C313.95 282.904 318.11 286.108 322.974 287.619L327.416 295.348C327.585 295.643 327.83 295.888 328.124 296.059C328.419 296.229 328.753 296.319 329.094 296.319C329.434 296.319 329.769 296.229 330.064 296.059C330.358 295.888 330.603 295.643 330.772 295.348L335.169 287.733C340.089 286.305 344.328 283.152 347.11 278.85C349.892 274.549 351.03 269.39 350.315 264.317C349.6 259.245 347.081 254.601 343.218 251.236C339.356 247.872 334.41 246.013 329.287 246V246ZM329.287 283.539C326.072 283.54 322.928 282.588 320.253 280.802C317.579 279.016 315.494 276.477 314.263 273.506C313.032 270.536 312.709 267.266 313.336 264.112C313.963 260.958 315.512 258.061 317.786 255.787C320.06 253.513 322.957 251.965 326.111 251.338C329.265 250.71 332.534 251.033 335.505 252.264C338.476 253.495 341.015 255.58 342.801 258.254C344.586 260.929 345.539 264.073 345.538 267.289C345.536 271.598 343.823 275.73 340.776 278.777C337.729 281.825 333.597 283.537 329.287 283.539ZM331.413 301.344C331.414 301.766 331.29 302.179 331.056 302.531C330.823 302.882 330.49 303.157 330.1 303.319C329.71 303.481 329.281 303.524 328.867 303.442C328.452 303.36 328.072 303.156 327.773 302.858C327.475 302.559 327.272 302.179 327.19 301.765C327.108 301.35 327.15 300.921 327.313 300.531C327.475 300.142 327.749 299.809 328.101 299.575C328.452 299.341 328.865 299.217 329.287 299.218C329.851 299.22 330.39 299.444 330.789 299.843C331.187 300.241 331.411 300.781 331.413 301.344Z" fill="#03799C"/>
<path d="M329.288 283.546C338.266 283.546 345.545 276.267 345.545 267.289C345.545 258.311 338.266 251.032 329.288 251.032C320.31 251.032 313.031 258.311 313.031 267.289C313.031 276.267 320.31 283.546 329.288 283.546Z" fill="white"/>
<g clip-path="url(#clip0)">
<path d="M334.484 267.482H336.828V273.094H334.484V267.482Z" fill="black"/>
<path d="M330.047 267.482H332.391V273.094H330.047V267.482Z" fill="black"/>
<path d="M325.609 267.482H327.953V273.094H325.609V267.482Z" fill="black"/>
<path d="M321.172 267.482H323.515V273.094H321.172V267.482Z" fill="black"/>
<path d="M337.611 265.724V265.138H320.391V265.724C320.391 266.048 320.653 266.31 320.977 266.31H337.025C337.349 266.31 337.611 266.048 337.611 265.724Z" fill="black"/>
<path d="M338.413 274.266H319.586C319.262 274.266 319 274.528 319 274.852V276.414C319 276.738 319.262 277 319.586 277H338.413C338.737 277 338.999 276.738 338.999 276.414V274.852C338.999 274.528 338.737 274.266 338.413 274.266Z" fill="black"/>
<path d="M319.586 263.967H338.414C338.676 263.967 338.906 263.792 338.978 263.54C339.049 263.288 338.944 263.019 338.721 262.882L329.307 257.087C329.119 256.971 328.881 256.971 328.693 257.087L319.279 262.882C319.055 263.019 318.951 263.288 319.022 263.54C319.094 263.792 319.324 263.967 319.586 263.967ZM328.602 260.446H329.398C329.722 260.446 329.984 260.709 329.984 261.032C329.984 261.356 329.722 261.618 329.398 261.618H328.602C328.278 261.618 328.016 261.356 328.016 261.032C328.016 260.709 328.278 260.446 328.602 260.446Z" fill="black"/>
</g>
<path d="M332.287 90C327.195 90.0003 322.271 91.8261 318.41 95.1462C314.548 98.4663 312.005 103.061 311.241 108.096C310.477 113.131 311.543 118.273 314.247 122.588C316.95 126.904 321.11 130.108 325.974 131.619L330.416 139.348C330.585 139.643 330.83 139.888 331.124 140.059C331.419 140.229 331.753 140.319 332.094 140.319C332.434 140.319 332.769 140.229 333.064 140.059C333.358 139.888 333.603 139.643 333.772 139.348L338.169 131.733C343.089 130.305 347.328 127.152 350.11 122.85C352.892 118.549 354.03 113.39 353.315 108.317C352.6 103.245 350.081 98.6007 346.218 95.2362C342.356 91.8717 337.41 90.0126 332.287 90V90ZM332.287 127.539C329.072 127.54 325.928 126.588 323.253 124.802C320.579 123.016 318.494 120.477 317.263 117.506C316.032 114.536 315.709 111.266 316.336 108.112C316.963 104.958 318.512 102.061 320.786 99.787C323.06 97.5131 325.957 95.9646 329.111 95.3376C332.265 94.7105 335.534 95.033 338.505 96.2642C341.476 97.4954 344.015 99.58 345.801 102.254C347.586 104.929 348.539 108.073 348.538 111.289C348.536 115.598 346.823 119.73 343.776 122.777C340.729 125.825 336.597 127.537 332.287 127.539ZM334.413 145.344C334.414 145.766 334.29 146.179 334.056 146.531C333.823 146.882 333.49 147.157 333.1 147.319C332.71 147.481 332.281 147.524 331.867 147.442C331.452 147.36 331.072 147.156 330.773 146.858C330.475 146.559 330.272 146.179 330.19 145.765C330.108 145.35 330.15 144.921 330.313 144.531C330.475 144.142 330.749 143.809 331.101 143.575C331.452 143.341 331.865 143.217 332.287 143.218C332.851 143.22 333.39 143.444 333.789 143.843C334.187 144.241 334.411 144.781 334.413 145.344Z" fill="#03799C"/>
<path d="M332.288 127.546C341.266 127.546 348.545 120.267 348.545 111.289C348.545 102.311 341.266 95.0322 332.288 95.0322C323.31 95.0322 316.031 102.311 316.031 111.289C316.031 120.267 323.31 127.546 332.288 127.546Z" fill="white"/>
<g clip-path="url(#clip1)">
<path d="M337.484 111.482H339.828V117.094H337.484V111.482Z" fill="black"/>
<path d="M333.047 111.482H335.391V117.094H333.047V111.482Z" fill="black"/>
<path d="M328.609 111.482H330.953V117.094H328.609V111.482Z" fill="black"/>
<path d="M324.172 111.482H326.515V117.094H324.172V111.482Z" fill="black"/>
<path d="M340.611 109.724V109.138H323.391V109.724C323.391 110.048 323.653 110.31 323.977 110.31H340.025C340.349 110.31 340.611 110.048 340.611 109.724Z" fill="black"/>
<path d="M341.413 118.266H322.586C322.262 118.266 322 118.528 322 118.852V120.414C322 120.738 322.262 121 322.586 121H341.413C341.737 121 341.999 120.738 341.999 120.414V118.852C341.999 118.528 341.737 118.266 341.413 118.266Z" fill="black"/>
<path d="M322.586 107.967H341.414C341.676 107.967 341.906 107.792 341.978 107.54C342.049 107.288 341.944 107.019 341.721 106.882L332.307 101.087C332.119 100.971 331.881 100.971 331.693 101.087L322.279 106.882C322.055 107.019 321.951 107.288 322.022 107.54C322.094 107.792 322.324 107.967 322.586 107.967ZM331.602 104.446H332.398C332.722 104.446 332.984 104.709 332.984 105.032C332.984 105.356 332.722 105.618 332.398 105.618H331.602C331.278 105.618 331.016 105.356 331.016 105.032C331.016 104.709 331.278 104.446 331.602 104.446Z" fill="black"/>
</g>
<path opacity="0.3" d="M372.163 369.896C362.871 345.99 344.102 343.145 343.959 322.964C343.959 313.918 347.623 313.733 350.099 300.45C351.614 292.591 352.432 281.62 344.471 249.057C334.851 209.78 329.816 210.169 331.392 196.476C333.439 178.281 342.383 177.278 344.164 156.381C345.76 137.51 338.863 134.44 342.383 119.539C345.412 106.706 351.041 106.931 362.277 85.6658C370.669 69.8241 375.479 60.7366 374.169 48.8246C372.47 33.3922 361.581 23.22 357.795 19.6996C344.327 7.13266 328.363 4.81985 316.205 3.08013C308.649 1.99323 300.998 1.72557 293.384 2.28187L298.972 7.235C311.784 18.5125 318.416 23.9363 324.515 33.9653C325.272 35.2139 329.918 42.8482 328.383 44.199C326.848 45.5499 317.925 39.3482 317.249 38.857C313.381 36.0325 312.726 34.7636 310.331 34.3951C306.565 33.9244 305.378 36.9331 301.858 36.6261C297.027 36.1758 295.513 30.097 293.18 30.6087C289.761 31.3455 293.077 44.3218 286.487 49.7661C281.8 53.6345 277.215 49.4796 272.692 52.652C263.195 59.3449 273.347 84.8472 266.449 88.081C263.072 89.657 260.125 83.8443 251.078 84.2945C247.271 84.4787 244.938 85.6453 241.929 84.0694C238.921 82.4934 238.47 79.3005 236.587 79.1777C233.906 78.9935 231.614 85.0723 230.12 88.5313C227.561 94.5282 222.137 107.157 212.743 113.931C204.965 119.539 199.521 117.452 190.7 125.291C189.269 126.739 187.609 127.942 185.787 128.852C183.032 130.015 180.066 130.596 177.075 130.557C174.085 130.518 171.135 129.861 168.411 128.627C164.849 127.051 164.317 125.68 162.27 125.741C158.177 125.843 154.697 130.551 153.142 133.928C146.777 148.05 159.487 171.956 164.235 180.88C166.098 184.38 167.96 187.511 166.712 190.336C163.58 197.438 145.098 192.731 142.417 199.116C140.043 204.704 152.507 212.502 150.277 216.432C148.23 219.911 135.479 219.359 128.684 212.338C123.71 207.242 125.593 202.391 119.903 196.599C116.096 192.731 114.459 194.081 106.845 189.845C94.5644 182.988 93.0498 176.254 82.0793 173.327C76.8192 171.936 74.6087 172.795 73.6058 173.327C69.2053 175.681 68.8574 181.965 67.8135 187.143C65.2894 196.863 60.5701 205.874 54.0186 213.484C51.3987 216.616 45.3813 222.633 33.1828 226.215C33.4694 231.107 30.1742 235.814 27.5953 248.402C25.0983 260.477 23.8497 266.495 26.4081 271.571C31.2794 281.293 46.5685 282.951 62.0418 284.629C85.743 287.228 101.257 283.299 102.977 288.211C104.696 293.123 90.6961 299.222 91.699 308.412C92.3335 314.061 99.19 313.918 103.57 320.692C106.231 324.786 106.108 328.265 105.187 334.242C113.005 339.011 119.514 342.797 124.672 345.642C138.037 353.133 147.329 357.677 149.622 367.03C150.993 372.659 148.557 374.767 150.809 378.615C155.332 386.29 166.712 380.478 179.627 387.518C192.542 394.559 193.749 407.556 202.489 407.126C204.506 406.969 206.446 406.283 208.114 405.137C209.781 403.99 211.117 402.424 211.985 400.597C215.67 392.001 203.082 381.787 206.357 377.714C208.26 375.34 214.687 376.138 217.942 379.208C219.988 381.03 219.681 382.708 220.909 384.55C224.286 389.565 234.397 389.831 240.517 388.112C258.344 383.036 263.727 355.446 268.578 356.756C271.832 357.697 269.274 370.592 275.414 373.396C278.443 374.788 280.367 372.229 283.724 373.703C289.291 376.118 287.817 384.735 292.34 386.474C296.25 387.948 298.788 382.135 304.825 381.706C313.012 381.153 321.813 390.916 325.293 400.126C328.772 409.336 324.781 413.061 329.161 423.889C331.041 428.979 334.091 433.558 338.064 437.254C346.906 444.991 356.321 442.555 367.108 444.909C369.033 445.308 370.912 445.905 372.716 446.689C373.084 441.695 373.432 436.169 373.718 430.131C375.274 396.688 376.072 379.925 372.163 369.896Z" stroke="white" stroke-width="2.5" stroke-miterlimit="10"/>
<path d="M329.099 176C322.377 176 315.878 178.41 310.781 182.793C305.683 187.176 302.326 193.24 301.318 199.886C300.31 206.532 301.717 213.32 305.285 219.017C308.854 224.714 314.346 228.943 320.765 230.937L326.628 241.139C326.852 241.529 327.175 241.852 327.564 242.078C327.953 242.303 328.394 242.421 328.844 242.421C329.293 242.421 329.735 242.303 330.124 242.078C330.513 241.852 330.835 241.529 331.059 241.139L336.864 231.088C343.357 229.203 348.953 225.04 352.626 219.363C356.298 213.685 357.8 206.874 356.856 200.179C355.912 193.484 352.586 187.353 347.488 182.912C342.39 178.471 335.861 176.017 329.099 176V176ZM329.099 225.551C324.854 225.553 320.704 224.296 317.174 221.938C313.644 219.581 310.892 216.23 309.267 212.308C307.642 208.387 307.216 204.072 308.044 199.908C308.872 195.745 310.916 191.92 313.917 188.919C316.919 185.917 320.743 183.873 324.907 183.046C329.07 182.218 333.385 182.644 337.307 184.269C341.228 185.894 344.58 188.646 346.937 192.176C349.294 195.706 350.551 199.856 350.55 204.101C350.548 209.789 348.287 215.244 344.265 219.266C340.242 223.288 334.788 225.549 329.099 225.551ZM331.905 249.054C331.907 249.611 331.743 250.157 331.434 250.621C331.126 251.085 330.686 251.447 330.172 251.661C329.657 251.875 329.091 251.931 328.544 251.823C327.997 251.715 327.495 251.446 327.101 251.052C326.707 250.658 326.439 250.156 326.33 249.609C326.222 249.063 326.278 248.496 326.493 247.981C326.707 247.467 327.069 247.027 327.533 246.719C327.997 246.41 328.542 246.246 329.099 246.248C329.843 246.25 330.555 246.547 331.081 247.072C331.607 247.598 331.903 248.31 331.905 249.054Z" fill="#E3393B"/>
<path d="M329.099 225.56C340.951 225.56 350.558 215.952 350.558 204.101C350.558 192.25 340.951 182.642 329.099 182.642C317.248 182.642 307.641 192.25 307.641 204.101C307.641 215.952 317.248 225.56 329.099 225.56Z" fill="#E3393B"/>
<path d="M323.53 197.795H331.986L325.378 214.175H328.906L335.85 196.731V194.575H323.53V197.795Z" fill="white"/>
<defs>
<clipPath id="clip0">
<rect x="319" y="257" width="20" height="20" fill="white"/>
</clipPath>
<clipPath id="clip1">
<rect x="322" y="101" width="20" height="20" fill="white"/>
</clipPath>
</defs>
</svg>
